<?xml version="1.0" encoding="UTF-8"?>
<svg version="1.1" xmlns="http://www.w3.org/2000/svg" width="32" height="32">
<path d="M0 0 C10.56 0 21.12 0 32 0 C32 10.56 32 21.12 32 32 C21.44 32 10.88 32 0 32 C0 21.44 0 10.88 0 0 Z " fill="#FCFCFC" transform="translate(0,0)"/>
<path d="M0 0 C0 0.99 0 1.98 0 3 C0.62599617 4.68236471 1.28752268 6.3523962 2 8 C-0.75 8.25 -0.75 8.25 -4 8 C-6.375 6 -6.375 6 -8 4 C-8.33 5.32 -8.66 6.64 -9 8 C-10.98 8 -12.96 8 -15 8 C-13.57106495 4.41229749 -11.98491303 3.03489404 -8.625 1.1875 C-7.85414062 0.74792969 -7.08328125 0.30835937 -6.2890625 -0.14453125 C-3.68898395 -1.11623296 -2.56007809 -0.95272312 0 0 Z " fill="#1D1D1D" transform="translate(22,16)"/>
<path d="M0 0 C0.99 0.33 1.98 0.66 3 1 C3.6875 3.0625 3.6875 3.0625 4 5 C2.02 5.33 0.04 5.66 -2 6 C-1.34 4.02 -0.68 2.04 0 0 Z " fill="#1C1C1C" transform="translate(14,9)"/>
<path d="M0 0 C0 0.99 0 1.98 0 3 C-6.75 4.125 -6.75 4.125 -9 3 C-5.81237635 0.87491756 -3.73487777 0.4979837 0 0 Z " fill="#B1B1B1" transform="translate(18,13)"/>
</svg>
